<svg xmlns="http://www.w3.org/2000/svg" version="1.1" xmlns:xlink="http://www.w3.org/1999/xlink" width="1000" height="1000"><g clip-path="url(#SvgjsClipPath1151)"><rect width="1000" height="1000" fill="#ffffff"></rect><g transform="matrix(0.8333333333333334,0,0,0.8333333333333334,0,0)"><svg xmlns="http://www.w3.org/2000/svg" version="1.1" xmlns:xlink="http://www.w3.org/1999/xlink" width="1200" height="1200"><svg xmlns:dc="http://purl.org/dc/elements/1.1/" xmlns:cc="http://creativecommons.org/ns#" xmlns:rdf="http://www.w3.org/1999/02/22-rdf-syntax-ns#" xmlns:svg="http://www.w3.org/2000/svg" xmlns="http://www.w3.org/2000/svg" xmlns:sodipodi="http://sodipodi.sourceforge.net/DTD/sodipodi-0.dtd" xmlns:inkscape="http://www.inkscape.org/namespaces/inkscape" width="1200" height="1200" viewBox="0 0 1200 1200" version="1.1" id="svg48" sodipodi:docname="Owl and Map.svg" inkscape:version="0.92.2 (5c3e80d, 2017-08-06)">
  <metadata id="metadata54">
    <rdf:rdf>
      <cc:work rdf:about="">
        <dc:format>image/svg+xml</dc:format>
        <dc:type rdf:resource="http://purl.org/dc/dcmitype/StillImage"></dc:type>
        <dc:title></dc:title>
      </cc:work>
    </rdf:rdf>
  </metadata>
  <defs id="defs52"><clipPath id="SvgjsClipPath1151"><rect width="1000" height="1000" x="0" y="0" rx="250" ry="250"></rect></clipPath></defs>
  <sodipodi:namedview pagecolor="#ffffff" bordercolor="#666666" borderopacity="1" objecttolerance="10" gridtolerance="10" guidetolerance="10" inkscape:pageopacity="0" inkscape:pageshadow="2" inkscape:window-width="1280" inkscape:window-height="961" id="namedview50" showgrid="false" inkscape:zoom="0.32593203" inkscape:cx="515.60686" inkscape:cy="179.70334" inkscape:window-x="1272" inkscape:window-y="-8" inkscape:window-maximized="1" inkscape:current-layer="layer2" fit-margin-top="0" fit-margin-left="0" fit-margin-right="0" fit-margin-bottom="0"></sodipodi:namedview>
  <g inkscape:groupmode="layer" id="layer1" inkscape:label="Fundo Quadrado" style="display:inline" sodipodi:insensitive="true">
    <rect style="opacity:1;fill:#ebf2fa;fill-opacity:1;fill-rule:nonzero;stroke:none;stroke-width:15;stroke-linecap:round;stroke-linejoin:round;stroke-miterlimit:4;stroke-dasharray:none;stroke-dashoffset:0;stroke-opacity:1;paint-order:normal" id="rect824" width="1200" height="1200" x="0" y="0"></rect>
  </g>
  <g inkscape:groupmode="layer" id="layer2" inkscape:label="Coruja">
    <g id="g937" transform="matrix(1.994856,0,0,1.994856,-38.781066,-394.95538)">
      <path id="path12" d="m 237.94336,279.99609 c 3.0256,10.8288 6.31226,21.78759 9.22266,32.61719 -19.6992,25.4208 -15.28536,44.48829 -15.69336,74.55469 -0.6112,44.9328 -1.19556,78.49293 30.43164,114.17773 -15.1528,7.26 -30.34347,14.43987 -45.57227,21.53907 -8.4832,3.9608 -17.02717,7.87096 -25.45117,11.97656 -6.7872,3.308 -6.25355,6.17307 -6.25195,13.35547 0.0192,53.1296 -0.13487,106.26493 0.0195,159.39453 0.0208,7.0864 4.83854,10.07875 11.31054,7.28515 26.4848,-11.4304 52.19768,-25.08163 78.51368,-36.83203 l 68.52343,30.22852 c 6.86,2.9544 14.06915,6.86241 21.15235,9.13281 1.1208,0.3592 3.4638,-0.34974 4.6582,-0.66016 l 53.61328,-25.51953 c 8.9824,-4.2488 18.53903,-8.09112 27.20703,-12.91992 1.5568,-0.8672 4.52248,-2.3489 5.08008,-4.1289 1.9328,-6.1664 0.82947,-59.52201 0.82227,-70.59961 l -0.0234,-65.04688 c -0.002,-11.4512 0.0113,-22.99738 -0.0527,-34.45898 -0.0736,-2.296 0.002,-3.64743 -1.16796,-5.67383 -3.312,-5.7376 -9.62026,-2.3763 -14.00586,-0.4043 -5.1448,2.3136 -10.41373,5.52318 -15.61133,7.51758 4.2736,-25.9664 2.96867,-52.5436 -3.82813,-77.9668 -2.2824,-8.4424 -6.5404,-17.2253 -7.8164,-25.5957 -0.8296,-5.4416 -0.60119,-13.5367 -0.61719,-19.1543 -0.0856,-31.0824 2.8034,-44.41601 -15.6582,-70.63281 l 9.1582,-32.10156 c -6.96,1.4848 -27.22167,9.82967 -34.51367,12.73047 -5.9264,-1.968 -11.08561,-4.61702 -17.2832,-6.32422 -27.1472,-7.4672 -56.05202,-5.19422 -81.69922,6.42578 -9.8904,-3.9864 -24.3316,-10.05682 -34.4668,-12.91602 z m 50.32226,33.40821 c 14.37969,0.10837 25.593,9.12961 33.79493,20.69336 4.2072,-6.3744 8.1815,-11.35372 14.9375,-15.26172 9.1904,-5.2432 20.08007,-6.64138 30.29687,-3.89258 10.1168,2.728 18.70158,9.43038 23.80078,18.58398 5.6176,10.1544 7.26041,23.8981 3.81641,35.0293 -4.1848,13.5224 -12.89152,21.0154 -24.66992,27.4082 -27.3912,14.7624 -79.64894,13.4054 -105.24414,-5.1914 -30.6248,-22.2504 -20.81048,-72.03578 18.70312,-77.10938 1.5555,-0.1866 3.0769,-0.27097 4.56445,-0.25976 z m -41.20117,83.89258 c 4.7128,3.37999 10.33432,7.90663 15.41993,10.52343 31.29759,16.1024 69.00164,16.58995 101.96484,7.15235 -10.7984,31.0432 -1.56915,69.75559 22.99805,91.68359 4.2456,3.7888 8.3854,7.08135 12.875,10.56055 l -5.69922,2.4375 c -6.2208,2.4088 -21.456,6.80447 -27.9336,6.54687 -5.044,-2.6144 -2.84288,-12.03966 -15.17968,-2.69726 -4.0736,-1.2296 -5.47699,-11.28416 -14.20899,-1.37696 -10.3536,-4.1832 -19.86514,-8.48549 -29.86914,-13.37109 -7.6792,-3.7496 -17.28846,-5.74352 -24.84766,-10.10352 -3.5216,-2.0312 -6.65646,-4.90287 -9.48046,-7.83007 -25.9608,-27.184 -26.64467,-58.5686 -26.03907,-93.52539 z m 193.3418,117.21874 c 0.8312,1.0264 0.39011,45.75063 0.37891,50.60743 l -67.06836,32.58398 c -1.0744,-1.3696 -0.67569,-46.05573 -0.67969,-50.92773 22.1456,-9.844 45.03634,-21.97486 67.36914,-32.26368 z m -158.81055,0.0606 c 4.4712,1.1192 1.49302,7.90121 2.32422,11.38281 0.328,1.3744 0.61725,3.46033 2.06446,4.23633 9.45519,5.0712 9.03318,-3.61288 11.83398,-8.08008 l 0.79297,0.0547 c 1.9328,2.1384 -0.15942,10.23337 4.89258,13.04297 4.6752,0.9096 7.91154,-3.41481 9.15234,-7.38281 7.8544,3.3736 15.67233,6.83109 23.45313,10.37109 -2.59281,10.0104 -7.00123,22.25939 -10.29883,32.27539 l -18.26367,55.48828 c -3.952,13.7864 -9.92755,30.19689 -14.43555,44.21289 -3.884,-1.6632 -7.74036,-3.39053 -11.56836,-5.17773 z m -15.47656,0.89453 c 0.1896,0.0816 0.75586,0.6365 0.75586,0.7461 -0.0384,17.4576 0.0409,67.1047 0.0625,81.5039 -3.7032,2.0208 -7.77704,3.92756 -11.58984,5.78516 -5.0848,-7.0328 -10.92061,-16.55376 -15.65821,-23.94336 l -25.2832,-39.53125 c 15.968,-8.2688 35.20569,-16.76135 51.71289,-24.56055 z m 84.47461,28.33789 7.66406,3.55664 c 0.2888,20.4592 0.27986,40.92051 -0.0273,61.37891 L 346.32617,603.5 332.54102,597.3125 c 5.0008,-15.8104 12.03433,-38.38951 18.05273,-53.50391 z m -150.89453,2.46485 c 0.4112,0.1936 0.90934,0.43103 1.49414,0.70703 10.8224,17.7368 30.86031,46.25269 40.75391,63.08789 -4.7552,2.2536 -9.49697,4.53344 -14.22657,6.83984 -9.4384,4.6832 -18.92804,9.26494 -28.46484,13.74414 0.3032,-8.5432 -0.49184,-82.1581 0.44336,-84.3789 z m 240.76172,35.17773 c 0.62,1.912 0.20062,15.13617 0.14062,18.00977 -22.3912,10.7008 -44.71967,21.53626 -66.98047,32.50586 -0.9664,-1.4808 -0.55887,-15.01 -0.54687,-17.75 z m -112.37696,29.84961 c 6.044,3.348 23.32,10.33867 30.2168,13.35547 0.4392,9.0232 0.14249,20.38633 0.14649,29.55273 0.0928,14.972 0.0402,29.94287 -0.15821,44.91407 -5.0512,-2.0496 -10.10824,-4.38394 -15.08984,-6.61914 -11.9832,-5.4712 -24.92637,-10.69725 -36.66797,-16.49805 z m -62.10351,3.14258 0.47656,0.12695 c 0.6144,0.9312 0.44402,45.07121 0.48242,50.84961 l -66.62695,31.625 c -0.2008,-0.0488 -0.63514,-0.39746 -0.83594,-0.53906 -0.3216,-3.5728 -0.0475,-11.88113 -0.0547,-15.80274 l -0.0742,-34.00976 c 21.4,-9.56 45.33361,-21.8772 66.63281,-32.25 z m 173.92578,1.51172 c 0.0688,0.0512 0.15148,0.0871 0.20508,0.1543 1.372,1.71199 0.53998,44.63608 0.51758,50.42968 l -66.94727,31.64063 c -0.9896,-1.0968 -0.64736,-44.81608 -0.66016,-49.58008 21.972,-11.112 44.73437,-21.71013 66.88477,-32.64453 z" style="fill:#164292;stroke-width:0.80000001" inkscape:connector-curvature="0"></path>
      <path id="path16" d="m 441.406,421.589 c 12.022,-2.735 23.994,4.758 26.789,16.766 2.794,12.008 -4.64,24.017 -16.634,26.87 -12.078,2.873 -24.188,-4.624 -27.002,-16.715 -2.814,-12.092 4.742,-24.166 16.847,-26.921 z" transform="scale(0.8)" inkscape:connector-curvature="0" style="fill:#164292"></path>
      <path id="path18" d="m 354.085,421.593 c 12.059,-2.595 23.937,5.084 26.522,17.145 2.585,12.061 -5.102,23.933 -17.165,26.509 -12.05,2.574 -23.907,-5.104 -26.489,-17.152 -2.583,-12.049 5.086,-23.911 17.132,-26.502 z" transform="scale(0.8)" inkscape:connector-curvature="0" style="fill:#164292"></path>
      <path id="path20" d="m 388.267,460.896 c 8.753,0.448 19.901,0.151 28.851,0.115 l -9.718,18.694 -4.927,9.494 z" transform="scale(0.8)" inkscape:connector-curvature="0" style="fill:#164292"></path>
      <path id="path24" d="m 339.937,552.493 c 7.663,-0.359 7.673,2.195 10.665,8.712 3.855,8.399 16.117,3.519 19.169,10.988 -0.189,3.204 -1.721,4.665 -3.911,6.76 -17.397,3.547 -37.562,-15.46 -25.923,-26.46 z" transform="scale(0.8)" inkscape:connector-curvature="0" style="fill:#164292"></path>
      <path id="path26" d="m 392.982,552.369 c 10.863,-0.025 6.681,7.489 12.718,12.04 3.819,2.88 27.077,4.664 12.153,14.789 -16.961,3.036 -37.082,-15.975 -24.871,-26.829 z" transform="scale(0.8)" inkscape:connector-curvature="0" style="fill:#164292"></path>
      <path id="path28" d="m 378.072,589.395 c 11.103,-0.773 7.227,7.43 12.871,11.374 4.915,3.434 25.976,4.269 11.966,15.013 -16.418,2.885 -36.721,-15.527 -24.837,-26.387 z" transform="scale(0.8)" inkscape:connector-curvature="0" style="fill:#164292"></path>
    </g>
  </g>
</svg></svg></g></g></svg>